<svg width="11" height="11" viewBox="0 0 11 11" fill="none" xmlns="http://www.w3.org/2000/svg">
<g clip-path="url(#clip0_1777_392)">
<path d="M7.6499 6.30039V0.900391" stroke="#4A5565" stroke-width="0.9" stroke-linecap="round" stroke-linejoin="round"/>
<path d="M4.05006 8.15439L4.50006 6.30039H1.87656C1.73684 6.30039 1.59904 6.26786 1.47407 6.20538C1.3491 6.14289 1.24039 6.05217 1.15656 5.94039C1.07273 5.82861 1.01607 5.69885 0.99108 5.56139C0.966086 5.42392 0.973441 5.28252 1.01256 5.14839L2.06106 1.54839C2.11559 1.36145 2.22928 1.19723 2.38506 1.08039C2.54085 0.963551 2.73033 0.900391 2.92506 0.900391H9.00006C9.23876 0.900391 9.46768 0.995212 9.63646 1.16399C9.80524 1.33278 9.90006 1.5617 9.90006 1.80039V5.40039C9.90006 5.63909 9.80524 5.868 9.63646 6.03679C9.46768 6.20557 9.23876 6.30039 9.00006 6.30039H7.75806C7.59062 6.30048 7.42653 6.34728 7.28423 6.43552C7.14193 6.52376 7.02707 6.64995 6.95256 6.79989L5.40006 9.90039C5.18785 9.89776 4.97898 9.84722 4.78905 9.75252C4.59912 9.65783 4.43304 9.52144 4.30323 9.35355C4.17342 9.18566 4.08322 8.9906 4.03938 8.78295C3.99554 8.5753 3.99919 8.36043 4.05006 8.15439Z" stroke="#4A5565" stroke-width="0.9" stroke-linecap="round" stroke-linejoin="round"/>
</g>
<defs>
<clipPath id="clip0_1777_392">
<rect width="10.8" height="10.8" fill="white"/>
</clipPath>
</defs>
</svg>
