<svg width="13" height="13" viewBox="0 0 13 13" fill="none" xmlns="http://www.w3.org/2000/svg">
<g clip-path="url(#clip0_1777_386)">
<path d="M3.56445 5.09277V11.2036" stroke="#4A5565" stroke-width="1.01848" stroke-linecap="round" stroke-linejoin="round"/>
<path d="M7.63866 2.9944L7.12942 5.09247H10.0983C10.2564 5.09247 10.4123 5.12928 10.5538 5.19999C10.6952 5.2707 10.8182 5.37337 10.9131 5.49986C11.0079 5.62635 11.0721 5.77319 11.1003 5.92876C11.1286 6.08432 11.1203 6.24433 11.076 6.39612L9.8895 10.47C9.8278 10.6816 9.69914 10.8674 9.52285 10.9996C9.34655 11.1319 9.13213 11.2033 8.91176 11.2033H2.03703C1.76692 11.2033 1.50786 11.096 1.31686 10.905C1.12586 10.714 1.01855 10.455 1.01855 10.1849V6.11095C1.01855 5.84083 1.12586 5.58178 1.31686 5.39077C1.50786 5.19977 1.76692 5.09247 2.03703 5.09247H3.44253C3.63201 5.09237 3.81771 5.03941 3.97874 4.93955C4.13977 4.8397 4.26975 4.6969 4.35407 4.52721L6.11095 1.01855C6.35109 1.02153 6.58746 1.07873 6.80239 1.18589C7.01733 1.29305 7.20526 1.44739 7.35217 1.63738C7.49907 1.82738 7.60114 2.04811 7.65075 2.2831C7.70036 2.51808 7.69623 2.76124 7.63866 2.9944Z" stroke="#4A5565" stroke-width="1.01848" stroke-linecap="round" stroke-linejoin="round"/>
</g>
<defs>
<clipPath id="clip0_1777_386">
<rect width="12.2217" height="12.2217" fill="white"/>
</clipPath>
</defs>
</svg>
